<svg width="18" height="19" viewBox="0 0 18 19" fill="none" xmlns="http://www.w3.org/2000/svg">
<g clip-path="url(#clip0_1_593)">
<path d="M6.75 17.207C7.16421 17.207 7.5 16.8712 7.5 16.457C7.5 16.0428 7.16421 15.707 6.75 15.707C6.33579 15.707 6 16.0428 6 16.457C6 16.8712 6.33579 17.207 6.75 17.207Z" stroke="#494949" stroke-width="2" stroke-linecap="round" stroke-linejoin="round"/>
<path d="M15 17.207C15.4142 17.207 15.75 16.8712 15.75 16.457C15.75 16.0428 15.4142 15.707 15 15.707C14.5858 15.707 14.25 16.0428 14.25 16.457C14.25 16.8712 14.5858 17.207 15 17.207Z" stroke="#494949" stroke-width="2" stroke-linecap="round" stroke-linejoin="round"/>
<path d="M0.75 1.45703H3.75L5.76 11.4995C5.82858 11.8448 6.01643 12.155 6.29066 12.3758C6.56489 12.5965 6.90802 12.7138 7.26 12.707H14.55C14.902 12.7138 15.2451 12.5965 15.5193 12.3758C15.7936 12.155 15.9814 11.8448 16.05 11.4995L17.25 5.20703H4.5" stroke="#494949" stroke-width="2" stroke-linecap="round" stroke-linejoin="round"/>
</g>
<defs>
<clipPath id="clip0_1_593">
<rect width="18" height="18" fill="white" transform="translate(0 0.707031)"/>
</clipPath>
</defs>
</svg>
