<svg width="20" height="15" viewBox="0 0 20 15" fill="none" xmlns="http://www.w3.org/2000/svg">
    <mask id="mask0_32_4866" style="mask-type:luminance" maskUnits="userSpaceOnUse" x="0" y="0" width="20" height="15">
        <rect width="20" height="15" fill="white"/>
    </mask>
    <g mask="url(#mask0_32_4866)">
        <path fill-rule="evenodd" clip-rule="evenodd" d="M5 0H20V15H5V0Z" fill="#EF0000"/>
        <path fill-rule="evenodd" clip-rule="evenodd" d="M0 0H7.5V15H0V0Z" fill="#2F8D00"/>
        <mask id="mask1_32_4866" style="mask-type:luminance" maskUnits="userSpaceOnUse" x="2" y="2" width="11" height="11">
            <path fill-rule="evenodd" clip-rule="evenodd" d="M7.44057 12.3795C4.77777 12.3795 2.61914 10.1949 2.61914 7.5C2.61914 4.80512 4.77777 2.62048 7.44057 2.62048C10.1034 2.62048 12.262 4.80512 12.262 7.5C12.262 10.1949 10.1034 12.3795 7.44057 12.3795Z" fill="white"/>
        </mask>
        <g mask="url(#mask1_32_4866)">
            <path fill-rule="evenodd" clip-rule="evenodd" d="M7.14307 2.5H7.76807V4.18675H7.14307V2.5Z" fill="#FFE017"/>
            <path fill-rule="evenodd" clip-rule="evenodd" d="M7.14307 10.9337H7.76807V12.5H7.14307V10.9337Z" fill="#FFE017"/>
            <path d="M2.69671 7.75239L2.52197 7.30409C4.45021 6.53429 5.90556 6.03784 6.89306 5.81411C8.34188 5.48585 9.9338 5.24299 11.6689 5.08533L11.7115 5.56532C9.99629 5.72117 8.42478 5.96093 6.99709 6.2844C6.03899 6.50147 4.60385 6.99102 2.69671 7.75239Z" fill="#FFE017"/>
            <path d="M11.9632 4.78993L11.8214 5.25C10.3641 4.78993 9.17694 4.59216 8.26443 4.65342L8.23291 4.17255C9.21265 4.10678 10.4546 4.31367 11.9632 4.78993Z" fill="#FFE017"/>
            <path d="M12.4675 7.36233L12.1981 7.75973C11.4552 7.24394 10.5399 6.98486 9.44604 6.98486V6.50293C10.6319 6.50293 11.6411 6.78861 12.4675 7.36233Z" fill="#FFE017"/>
            <path d="M12.0639 7.50659L12.187 7.97213C10.5854 8.40597 9.08167 8.65211 7.67576 8.71007C6.26016 8.76843 4.61025 8.52141 2.72461 7.97089L2.8566 7.50784C4.69641 8.04499 6.29681 8.28459 7.65638 8.22854C9.02564 8.17209 10.4949 7.9316 12.0639 7.50659Z" fill="#FFE017"/>
            <path d="M11.8823 9.77246L11.1296 10.5441C9.6992 9.11503 8.43987 8.09317 7.35939 7.47919C6.26045 6.85472 4.82733 6.22061 3.06226 5.57942L3.42422 4.55884C5.24135 5.21893 6.72719 5.87637 7.88395 6.5337C9.05918 7.20152 10.3894 8.2809 11.8823 9.77246Z" fill="#FFE017"/>
            <path d="M3.41162 10.2096L3.12671 9.82341C3.1665 9.79334 3.23749 9.7432 3.3353 9.67966C3.4968 9.57474 3.67614 9.46999 3.86909 9.37211C4.40053 9.10252 4.93361 8.9342 5.44206 8.91874C5.46693 8.91798 5.49169 8.9176 5.51635 8.9176V9.39953C5.49648 9.39953 5.47649 9.39984 5.45637 9.40045C5.02789 9.41348 4.55734 9.56205 4.08247 9.80294C3.90547 9.89273 3.74055 9.98906 3.59254 10.0852C3.54102 10.1187 3.49544 10.1496 3.45638 10.1772C3.43361 10.1933 3.41849 10.2044 3.41162 10.2096Z" fill="#FFE017"/>
            <path d="M3.63257 10.3767L3.75249 9.91026C5.34006 10.3283 6.56399 10.5367 7.41817 10.5367C8.26916 10.5367 9.53578 10.2909 11.2098 9.79773L11.3429 10.2604C9.62929 10.7653 8.32379 11.0186 7.41817 11.0186C6.51575 11.0186 5.25591 10.8042 3.63257 10.3767Z" fill="#FFE017"/>
            <path d="M3.01416 6.05902L3.76858 5.28906L4.87316 6.39759L4.11874 7.16755L3.01416 6.05902Z" fill="#FFE017"/>
            <path d="M9.27246 9.9048L9.83361 8.98108L11.5859 10.0714L11.0247 10.9951L9.27246 9.9048Z" fill="#FFE017"/>
        </g>
        <path fill-rule="evenodd" clip-rule="evenodd" d="M2.61914 7.5C2.61914 10.1949 4.77777 12.3795 7.44057 12.3795C10.1034 12.3795 12.262 10.1949 12.262 7.5C12.262 4.80512 10.1034 2.62048 7.44057 2.62048C4.77777 2.62048 2.61914 4.80512 2.61914 7.5ZM11.6668 7.56024C11.6668 9.88915 9.80128 11.7771 7.50009 11.7771C5.19891 11.7771 3.33343 9.88915 3.33343 7.56024C3.33343 5.23133 5.19891 3.34337 7.50009 3.34337C9.80128 3.34337 11.6668 5.23133 11.6668 7.56024Z" fill="#F9E813"/>
        <path d="M4.78564 4.49084V8.40379C5.04323 9.95259 5.91102 10.727 7.38901 10.727C8.86701 10.727 9.73479 9.95259 9.99238 8.40379V4.49084H4.78564Z" fill="white"/>
        <path d="M4.42847 4.12939H10.3495V8.43399L10.3445 8.46378C10.0585 10.1836 9.04453 11.0884 7.38898 11.0884C5.73342 11.0884 4.71944 10.1836 4.43342 8.46378L4.42847 8.43399V4.12939Z" fill="#C51918"/>
        <path d="M5.78271 5.44421H8.99504V8.21977C8.99504 8.21977 8.75667 9.65309 7.38888 9.65309C6.02109 9.65309 5.78271 8.21977 5.78271 8.21977V5.44421Z" fill="#F7FCFF"/>
        <path fill-rule="evenodd" clip-rule="evenodd" d="M5 4.42773H5.45181V4.72894H5V4.42773Z" fill="#F9E813"/>
        <path fill-rule="evenodd" clip-rule="evenodd" d="M4.76196 4.54822H5.5953V4.69882H4.76196V4.54822Z" fill="#060101"/>
        <path fill-rule="evenodd" clip-rule="evenodd" d="M4.76196 4.6687H5.21377V4.8193H4.76196V4.6687Z" fill="#F9E813"/>
        <path fill-rule="evenodd" clip-rule="evenodd" d="M5.23804 4.6687H5.68984V4.8193H5.23804V4.6687Z" fill="#F9E813"/>
        <path fill-rule="evenodd" clip-rule="evenodd" d="M4.76196 5.03015H5.06317V5.48196H4.76196V5.03015Z" fill="#F9E813"/>
        <path fill-rule="evenodd" clip-rule="evenodd" d="M5.35718 5.03015H5.65838V5.48196H5.35718V5.03015Z" fill="#F9E813"/>
        <path fill-rule="evenodd" clip-rule="evenodd" d="M5.11914 5.03015H5.26974V5.48196H5.11914V5.03015Z" fill="#F9E813"/>
        <path fill-rule="evenodd" clip-rule="evenodd" d="M4.76196 4.90967H5.5953V5.06027H4.76196V4.90967Z" fill="#060101"/>
        <path fill-rule="evenodd" clip-rule="evenodd" d="M4.76196 5.27112H5.5953V5.42172H4.76196V5.27112Z" fill="#060101"/>
        <path fill-rule="evenodd" clip-rule="evenodd" d="M4.8811 4.78918H5.03171V4.93979H4.8811V4.78918Z" fill="#F9E813"/>
        <path fill-rule="evenodd" clip-rule="evenodd" d="M5.35718 4.78918H5.50778V4.93979H5.35718V4.78918Z" fill="#F9E813"/>
        <path fill-rule="evenodd" clip-rule="evenodd" d="M5.11914 4.6687H5.26974V4.96991H5.11914V4.6687Z" fill="#F9E813"/>
        <path fill-rule="evenodd" clip-rule="evenodd" d="M7.26196 4.42773H7.71377V4.72894H7.26196V4.42773Z" fill="#F9E813"/>
        <path fill-rule="evenodd" clip-rule="evenodd" d="M7.02393 4.54822H7.85726V4.69882H7.02393V4.54822Z" fill="#060101"/>
        <path fill-rule="evenodd" clip-rule="evenodd" d="M7.02393 4.6687H7.47573V4.8193H7.02393V4.6687Z" fill="#F9E813"/>
        <path fill-rule="evenodd" clip-rule="evenodd" d="M7.5 4.6687H7.95181V4.8193H7.5V4.6687Z" fill="#F9E813"/>
        <path fill-rule="evenodd" clip-rule="evenodd" d="M7.02393 5.03015H7.32513V5.48196H7.02393V5.03015Z" fill="#F9E813"/>
        <path fill-rule="evenodd" clip-rule="evenodd" d="M7.61914 5.03015H7.92035V5.48196H7.61914V5.03015Z" fill="#F9E813"/>
        <path fill-rule="evenodd" clip-rule="evenodd" d="M7.3811 5.03015H7.53171V5.48196H7.3811V5.03015Z" fill="#F9E813"/>
        <path fill-rule="evenodd" clip-rule="evenodd" d="M7.02393 4.90967H7.85726V5.06027H7.02393V4.90967Z" fill="#060101"/>
        <path fill-rule="evenodd" clip-rule="evenodd" d="M7.02393 5.27112H7.85726V5.42172H7.02393V5.27112Z" fill="#060101"/>
        <path fill-rule="evenodd" clip-rule="evenodd" d="M7.14307 4.78918H7.29367V4.93979H7.14307V4.78918Z" fill="#F9E813"/>
        <path fill-rule="evenodd" clip-rule="evenodd" d="M7.61914 4.78918H7.76974V4.93979H7.61914V4.78918Z" fill="#F9E813"/>
        <path fill-rule="evenodd" clip-rule="evenodd" d="M7.3811 4.6687H7.53171V4.96991H7.3811V4.6687Z" fill="#F9E813"/>
        <path fill-rule="evenodd" clip-rule="evenodd" d="M9.40479 4.42773H9.85659V4.72894H9.40479V4.42773Z" fill="#F9E813"/>
        <path fill-rule="evenodd" clip-rule="evenodd" d="M9.16675 4.54822H10.0001V4.69882H9.16675V4.54822Z" fill="#060101"/>
        <path fill-rule="evenodd" clip-rule="evenodd" d="M9.16675 4.6687H9.61856V4.8193H9.16675V4.6687Z" fill="#F9E813"/>
        <path fill-rule="evenodd" clip-rule="evenodd" d="M9.64282 4.6687H10.0946V4.8193H9.64282V4.6687Z" fill="#F9E813"/>
        <path fill-rule="evenodd" clip-rule="evenodd" d="M9.16675 5.03015H9.46795V5.48196H9.16675V5.03015Z" fill="#F9E813"/>
        <path fill-rule="evenodd" clip-rule="evenodd" d="M9.76196 5.03015H10.0632V5.48196H9.76196V5.03015Z" fill="#F9E813"/>
        <path fill-rule="evenodd" clip-rule="evenodd" d="M9.52393 5.03015H9.67453V5.48196H9.52393V5.03015Z" fill="#F9E813"/>
        <path fill-rule="evenodd" clip-rule="evenodd" d="M9.16675 4.90967H10.0001V5.06027H9.16675V4.90967Z" fill="#060101"/>
        <path fill-rule="evenodd" clip-rule="evenodd" d="M9.16675 5.27112H10.0001V5.42172H9.16675V5.27112Z" fill="#060101"/>
        <path fill-rule="evenodd" clip-rule="evenodd" d="M9.28589 4.78918H9.43649V4.93979H9.28589V4.78918Z" fill="#F9E813"/>
        <path fill-rule="evenodd" clip-rule="evenodd" d="M9.76196 4.78918H9.91257V4.93979H9.76196V4.78918Z" fill="#F9E813"/>
        <path fill-rule="evenodd" clip-rule="evenodd" d="M9.52393 4.6687H9.67453V4.96991H9.52393V4.6687Z" fill="#F9E813"/>
        <path fill-rule="evenodd" clip-rule="evenodd" d="M9.40479 6.59644H9.85659V6.89764H9.40479V6.59644Z" fill="#F9E813"/>
        <path fill-rule="evenodd" clip-rule="evenodd" d="M9.16675 6.71692H10.0001V6.86752H9.16675V6.71692Z" fill="#060101"/>
        <path fill-rule="evenodd" clip-rule="evenodd" d="M9.16675 6.8374H9.61856V6.988H9.16675V6.8374Z" fill="#F9E813"/>
        <path fill-rule="evenodd" clip-rule="evenodd" d="M9.64282 6.8374H10.0946V6.988H9.64282V6.8374Z" fill="#F9E813"/>
        <path fill-rule="evenodd" clip-rule="evenodd" d="M9.16675 7.19885H9.46795V7.65066H9.16675V7.19885Z" fill="#F9E813"/>
        <path fill-rule="evenodd" clip-rule="evenodd" d="M9.76196 7.19885H10.0632V7.65066H9.76196V7.19885Z" fill="#F9E813"/>
        <path fill-rule="evenodd" clip-rule="evenodd" d="M9.52393 7.19885H9.67453V7.65066H9.52393V7.19885Z" fill="#F9E813"/>
        <path fill-rule="evenodd" clip-rule="evenodd" d="M9.16675 7.07837H10.0001V7.22897H9.16675V7.07837Z" fill="#060101"/>
        <path fill-rule="evenodd" clip-rule="evenodd" d="M9.16675 7.43982H10.0001V7.59042H9.16675V7.43982Z" fill="#060101"/>
        <path fill-rule="evenodd" clip-rule="evenodd" d="M9.28589 6.95789H9.43649V7.10849H9.28589V6.95789Z" fill="#F9E813"/>
        <path fill-rule="evenodd" clip-rule="evenodd" d="M9.76196 6.95789H9.91257V7.10849H9.76196V6.95789Z" fill="#F9E813"/>
        <path fill-rule="evenodd" clip-rule="evenodd" d="M9.52393 6.8374H9.67453V7.13861H9.52393V6.8374Z" fill="#F9E813"/>
        <path fill-rule="evenodd" clip-rule="evenodd" d="M5 6.59644H5.45181V6.89764H5V6.59644Z" fill="#F9E813"/>
        <path fill-rule="evenodd" clip-rule="evenodd" d="M4.76196 6.71692H5.5953V6.86752H4.76196V6.71692Z" fill="#060101"/>
        <path fill-rule="evenodd" clip-rule="evenodd" d="M4.76196 6.8374H5.21377V6.988H4.76196V6.8374Z" fill="#F9E813"/>
        <path fill-rule="evenodd" clip-rule="evenodd" d="M5.23804 6.8374H5.68984V6.988H5.23804V6.8374Z" fill="#F9E813"/>
        <path fill-rule="evenodd" clip-rule="evenodd" d="M4.76196 7.19885H5.06317V7.65066H4.76196V7.19885Z" fill="#F9E813"/>
        <path fill-rule="evenodd" clip-rule="evenodd" d="M5.35718 7.19885H5.65838V7.65066H5.35718V7.19885Z" fill="#F9E813"/>
        <path fill-rule="evenodd" clip-rule="evenodd" d="M5.11914 7.19885H5.26974V7.65066H5.11914V7.19885Z" fill="#F9E813"/>
        <path fill-rule="evenodd" clip-rule="evenodd" d="M4.76196 7.07837H5.5953V7.22897H4.76196V7.07837Z" fill="#060101"/>
        <path fill-rule="evenodd" clip-rule="evenodd" d="M4.76196 7.43982H5.5953V7.59042H4.76196V7.43982Z" fill="#060101"/>
        <path fill-rule="evenodd" clip-rule="evenodd" d="M4.8811 6.95789H5.03171V7.10849H4.8811V6.95789Z" fill="#F9E813"/>
        <path fill-rule="evenodd" clip-rule="evenodd" d="M5.35718 6.95789H5.50778V7.10849H5.35718V6.95789Z" fill="#F9E813"/>
        <path fill-rule="evenodd" clip-rule="evenodd" d="M5.11914 6.8374H5.26974V7.13861H5.11914V6.8374Z" fill="#F9E813"/>
        <path fill-rule="evenodd" clip-rule="evenodd" d="M5.29004 9.31506L5.58046 8.96896L5.81119 9.16257L5.52078 9.50867L5.29004 9.31506Z" fill="#F9E813"/>
        <path fill-rule="evenodd" clip-rule="evenodd" d="M5.22925 9.57483L5.7649 8.93646L5.88027 9.03326L5.34462 9.67163L5.22925 9.57483Z" fill="#060101"/>
        <path fill-rule="evenodd" clip-rule="evenodd" d="M5.32153 9.65234L5.61195 9.30624L5.72732 9.40304L5.4369 9.74915L5.32153 9.65234Z" fill="#F9E813"/>
        <path fill-rule="evenodd" clip-rule="evenodd" d="M5.62769 9.2876L5.9181 8.94149L6.03347 9.0383L5.74305 9.3844L5.62769 9.2876Z" fill="#F9E813"/>
        <path fill-rule="evenodd" clip-rule="evenodd" d="M5.59839 9.88464L5.792 9.65391L6.1381 9.94432L5.94449 10.1751L5.59839 9.88464Z" fill="#F9E813"/>
        <path fill-rule="evenodd" clip-rule="evenodd" d="M5.98096 9.42871L6.17457 9.19797L6.52067 9.48839L6.32706 9.71913L5.98096 9.42871Z" fill="#F9E813"/>
        <path fill-rule="evenodd" clip-rule="evenodd" d="M5.82788 9.61108L5.92469 9.49572L6.27079 9.78613L6.17399 9.9015L5.82788 9.61108Z" fill="#F9E813"/>
        <path fill-rule="evenodd" clip-rule="evenodd" d="M5.5061 9.80725L6.04176 9.16888L6.15713 9.26569L5.62147 9.90406L5.5061 9.80725Z" fill="#060101"/>
        <path fill-rule="evenodd" clip-rule="evenodd" d="M5.78296 10.0396L6.31862 9.40118L6.43398 9.49799L5.89833 10.1364L5.78296 10.0396Z" fill="#060101"/>
        <path fill-rule="evenodd" clip-rule="evenodd" d="M5.49048 9.63855L5.58728 9.52318L5.70265 9.61999L5.60585 9.73536L5.49048 9.63855Z" fill="#F9E813"/>
        <path fill-rule="evenodd" clip-rule="evenodd" d="M5.79639 9.2738L5.89319 9.15844L6.00856 9.25524L5.91175 9.37061L5.79639 9.2738Z" fill="#F9E813"/>
        <path fill-rule="evenodd" clip-rule="evenodd" d="M5.55103 9.37878L5.64783 9.26342L5.87857 9.45703L5.78176 9.57239L5.55103 9.37878Z" fill="#F9E813"/>
        <path fill-rule="evenodd" clip-rule="evenodd" d="M9.36157 9.04138L9.65199 9.38749L9.42125 9.5811L9.13084 9.23499L9.36157 9.04138Z" fill="#F9E813"/>
        <path fill-rule="evenodd" clip-rule="evenodd" d="M9.11621 8.9364L9.65187 9.57477L9.5365 9.67158L9.00084 9.03321L9.11621 8.9364Z" fill="#060101"/>
        <path fill-rule="evenodd" clip-rule="evenodd" d="M9.02393 9.01392L9.31434 9.36002L9.19897 9.45683L8.90856 9.11072L9.02393 9.01392Z" fill="#F9E813"/>
        <path fill-rule="evenodd" clip-rule="evenodd" d="M9.33008 9.37866L9.62049 9.72477L9.50513 9.82157L9.21471 9.47547L9.33008 9.37866Z" fill="#F9E813"/>
        <path fill-rule="evenodd" clip-rule="evenodd" d="M8.74707 9.24622L8.94068 9.47695L8.59458 9.76737L8.40097 9.53663L8.74707 9.24622Z" fill="#F9E813"/>
        <path fill-rule="evenodd" clip-rule="evenodd" d="M9.12964 9.70215L9.32325 9.93288L8.97714 10.2233L8.78353 9.99256L9.12964 9.70215Z" fill="#F9E813"/>
        <path fill-rule="evenodd" clip-rule="evenodd" d="M8.97656 9.51978L9.07337 9.63514L8.72726 9.92556L8.63046 9.81019L8.97656 9.51978Z" fill="#F9E813"/>
        <path fill-rule="evenodd" clip-rule="evenodd" d="M8.83936 9.16882L9.37501 9.80719L9.25964 9.904L8.72399 9.26563L8.83936 9.16882Z" fill="#060101"/>
        <path fill-rule="evenodd" clip-rule="evenodd" d="M8.5625 9.40112L9.09816 10.0395L8.98279 10.1363L8.44713 9.49793L8.5625 9.40112Z" fill="#060101"/>
        <path fill-rule="evenodd" clip-rule="evenodd" d="M9.00806 9.1825L9.10486 9.29786L8.98949 9.39467L8.89269 9.2793L9.00806 9.1825Z" fill="#F9E813"/>
        <path fill-rule="evenodd" clip-rule="evenodd" d="M9.31421 9.54736L9.41101 9.66273L9.29565 9.75954L9.19884 9.64417L9.31421 9.54736Z" fill="#F9E813"/>
        <path fill-rule="evenodd" clip-rule="evenodd" d="M9.25342 9.28748L9.35022 9.40284L9.11949 9.59645L9.02268 9.48109L9.25342 9.28748Z" fill="#F9E813"/>
        <path fill-rule="evenodd" clip-rule="evenodd" d="M7.84913 5.75305H7.02393V6.35397C7.02393 6.35397 7.08516 6.66429 7.43653 6.66429C7.7879 6.66429 7.84913 6.35397 7.84913 6.35397V5.75305ZM7.38107 5.99402C7.38107 6.06056 7.32777 6.1145 7.26202 6.1145C7.19627 6.1145 7.14297 6.06056 7.14297 5.99402C7.14297 5.92748 7.19627 5.87353 7.26202 5.87353C7.32777 5.87353 7.38107 5.92748 7.38107 5.99402ZM7.26202 6.59643C7.32777 6.59643 7.38107 6.54248 7.38107 6.47594C7.38107 6.4094 7.32777 6.35546 7.26202 6.35546C7.19627 6.35546 7.14297 6.4094 7.14297 6.47594C7.14297 6.54248 7.19627 6.59643 7.26202 6.59643ZM7.73821 6.47594C7.73821 6.54248 7.68491 6.59643 7.61916 6.59643C7.55342 6.59643 7.50012 6.54248 7.50012 6.47594C7.50012 6.4094 7.55342 6.35546 7.61916 6.35546C7.68491 6.35546 7.73821 6.4094 7.73821 6.47594ZM7.44059 6.35546C7.50634 6.35546 7.55964 6.30152 7.55964 6.23498C7.55964 6.16844 7.50634 6.1145 7.44059 6.1145C7.37484 6.1145 7.32154 6.16844 7.32154 6.23498C7.32154 6.30152 7.37484 6.35546 7.44059 6.35546ZM7.73821 5.99402C7.73821 6.06056 7.68491 6.1145 7.61916 6.1145C7.55342 6.1145 7.50012 6.06056 7.50012 5.99402C7.50012 5.92748 7.55342 5.87353 7.61916 5.87353C7.68491 5.87353 7.73821 5.92748 7.73821 5.99402Z" fill="#013399"/>
        <path fill-rule="evenodd" clip-rule="evenodd" d="M7.84913 7.07837H7.02393V7.67929C7.02393 7.67929 7.08516 7.98961 7.43653 7.98961C7.7879 7.98961 7.84913 7.67929 7.84913 7.67929V7.07837ZM7.38107 7.31933C7.38107 7.38587 7.32777 7.43981 7.26202 7.43981C7.19627 7.43981 7.14297 7.38587 7.14297 7.31933C7.14297 7.25279 7.19627 7.19885 7.26202 7.19885C7.32777 7.19885 7.38107 7.25279 7.38107 7.31933ZM7.26202 7.92174C7.32777 7.92174 7.38107 7.8678 7.38107 7.80126C7.38107 7.73472 7.32777 7.68078 7.26202 7.68078C7.19627 7.68078 7.14297 7.73472 7.14297 7.80126C7.14297 7.8678 7.19627 7.92174 7.26202 7.92174ZM7.73821 7.80126C7.73821 7.8678 7.68491 7.92174 7.61916 7.92174C7.55342 7.92174 7.50012 7.8678 7.50012 7.80126C7.50012 7.73472 7.55342 7.68078 7.61916 7.68078C7.68491 7.68078 7.73821 7.73472 7.73821 7.80126ZM7.44059 7.68078C7.50634 7.68078 7.55964 7.62684 7.55964 7.5603C7.55964 7.49376 7.50634 7.43981 7.44059 7.43981C7.37484 7.43981 7.32154 7.49376 7.32154 7.5603C7.32154 7.62684 7.37484 7.68078 7.44059 7.68078ZM7.73821 7.31933C7.73821 7.38587 7.68491 7.43981 7.61916 7.43981C7.55342 7.43981 7.50012 7.38587 7.50012 7.31933C7.50012 7.25279 7.55342 7.19885 7.61916 7.19885C7.68491 7.19885 7.73821 7.25279 7.73821 7.31933Z" fill="#013399"/>
        <path fill-rule="evenodd" clip-rule="evenodd" d="M8.92067 7.07837H8.09546V7.67929C8.09546 7.67929 8.1567 7.98961 8.50806 7.98961C8.85943 7.98961 8.92067 7.67929 8.92067 7.67929V7.07837ZM8.4526 7.31933C8.4526 7.38587 8.3993 7.43981 8.33355 7.43981C8.26781 7.43981 8.21451 7.38587 8.21451 7.31933C8.21451 7.25279 8.26781 7.19885 8.33355 7.19885C8.3993 7.19885 8.4526 7.25279 8.4526 7.31933ZM8.33355 7.92174C8.3993 7.92174 8.4526 7.8678 8.4526 7.80126C8.4526 7.73472 8.3993 7.68078 8.33355 7.68078C8.26781 7.68078 8.21451 7.73472 8.21451 7.80126C8.21451 7.8678 8.26781 7.92174 8.33355 7.92174ZM8.80974 7.80126C8.80974 7.8678 8.75645 7.92174 8.6907 7.92174C8.62495 7.92174 8.57165 7.8678 8.57165 7.80126C8.57165 7.73472 8.62495 7.68078 8.6907 7.68078C8.75645 7.68078 8.80974 7.73472 8.80974 7.80126ZM8.51213 7.68078C8.57787 7.68078 8.63117 7.62684 8.63117 7.5603C8.63117 7.49376 8.57787 7.43981 8.51213 7.43981C8.44638 7.43981 8.39308 7.49376 8.39308 7.5603C8.39308 7.62684 8.44638 7.68078 8.51213 7.68078ZM8.80974 7.31933C8.80974 7.38587 8.75645 7.43981 8.6907 7.43981C8.62495 7.43981 8.57165 7.38587 8.57165 7.31933C8.57165 7.25279 8.62495 7.19885 8.6907 7.19885C8.75645 7.19885 8.80974 7.25279 8.80974 7.31933Z" fill="#013399"/>
        <path fill-rule="evenodd" clip-rule="evenodd" d="M6.77784 7.07837H5.95264V7.67929C5.95264 7.67929 6.01387 7.98961 6.36524 7.98961C6.71661 7.98961 6.77784 7.67929 6.77784 7.67929V7.07837ZM6.30978 7.31933C6.30978 7.38587 6.25648 7.43981 6.19073 7.43981C6.12498 7.43981 6.07168 7.38587 6.07168 7.31933C6.07168 7.25279 6.12498 7.19885 6.19073 7.19885C6.25648 7.19885 6.30978 7.25279 6.30978 7.31933ZM6.19073 7.92174C6.25648 7.92174 6.30978 7.8678 6.30978 7.80126C6.30978 7.73472 6.25648 7.68078 6.19073 7.68078C6.12498 7.68078 6.07168 7.73472 6.07168 7.80126C6.07168 7.8678 6.12498 7.92174 6.19073 7.92174ZM6.66692 7.80126C6.66692 7.8678 6.61362 7.92174 6.54787 7.92174C6.48213 7.92174 6.42883 7.8678 6.42883 7.80126C6.42883 7.73472 6.48213 7.68078 6.54787 7.68078C6.61362 7.68078 6.66692 7.73472 6.66692 7.80126ZM6.3693 7.68078C6.43505 7.68078 6.48835 7.62684 6.48835 7.5603C6.48835 7.49376 6.43505 7.43981 6.3693 7.43981C6.30356 7.43981 6.25026 7.49376 6.25026 7.5603C6.25026 7.62684 6.30356 7.68078 6.3693 7.68078ZM6.66692 7.31933C6.66692 7.38587 6.61362 7.43981 6.54787 7.43981C6.48213 7.43981 6.42883 7.38587 6.42883 7.31933C6.42883 7.25279 6.48213 7.19885 6.54787 7.19885C6.61362 7.19885 6.66692 7.25279 6.66692 7.31933Z" fill="#013399"/>
        <path fill-rule="evenodd" clip-rule="evenodd" d="M7.84913 8.40369H7.02393V9.00461C7.02393 9.00461 7.08516 9.31493 7.43653 9.31493C7.7879 9.31493 7.84913 9.00461 7.84913 9.00461V8.40369ZM7.38107 8.64465C7.38107 8.71119 7.32777 8.76513 7.26202 8.76513C7.19627 8.76513 7.14297 8.71119 7.14297 8.64465C7.14297 8.57811 7.19627 8.52417 7.26202 8.52417C7.32777 8.52417 7.38107 8.57811 7.38107 8.64465ZM7.26202 9.24706C7.32777 9.24706 7.38107 9.19312 7.38107 9.12658C7.38107 9.06004 7.32777 9.0061 7.26202 9.0061C7.19627 9.0061 7.14297 9.06004 7.14297 9.12658C7.14297 9.19312 7.19627 9.24706 7.26202 9.24706ZM7.73821 9.12658C7.73821 9.19312 7.68491 9.24706 7.61916 9.24706C7.55342 9.24706 7.50012 9.19312 7.50012 9.12658C7.50012 9.06004 7.55342 9.0061 7.61916 9.0061C7.68491 9.0061 7.73821 9.06004 7.73821 9.12658ZM7.44059 9.0061C7.50634 9.0061 7.55964 8.95215 7.55964 8.88561C7.55964 8.81907 7.50634 8.76513 7.44059 8.76513C7.37484 8.76513 7.32154 8.81907 7.32154 8.88561C7.32154 8.95215 7.37484 9.0061 7.44059 9.0061ZM7.73821 8.64465C7.73821 8.71119 7.68491 8.76513 7.61916 8.76513C7.55342 8.76513 7.50012 8.71119 7.50012 8.64465C7.50012 8.57811 7.55342 8.52417 7.61916 8.52417C7.68491 8.52417 7.73821 8.57811 7.73821 8.64465Z" fill="#013399"/>
    </g>
</svg>
